<svg xmlns="http://www.w3.org/2000/svg" xmlns:xlink="http://www.w3.org/1999/xlink" width="500" zoomAndPan="magnify" viewBox="0 0 375 374.999991" height="500" preserveAspectRatio="xMidYMid meet" version="1.0"><path fill="#b032f4" d="M 374.082031 187.992188 L 374.082031 328.804688 C 374.082031 350.320312 357.855469 369.980469 336.671875 374.019531 C 333.53125 374.625 330.292969 374.957031 327.113281 374.957031 C 233.542969 375.015625 139.992188 374.996094 46.425781 374.996094 C 23.484375 374.996094 3.472656 357.402344 0.46875 334.578125 C 0.183594 332.5625 0.03125 330.53125 0.0195312 328.492188 C 0 234.691406 0 140.886719 0 47.101562 C 0 25.585938 16.230469 5.90625 37.414062 1.886719 C 40.550781 1.28125 43.789062 0.949219 46.96875 0.949219 C 140.617188 0.910156 234.265625 0.910156 327.894531 0.910156 C 349.410156 0.910156 369.109375 17.160156 373.109375 38.324219 C 373.691406 41.464844 374.042969 44.703125 374.042969 47.882812 C 374.101562 94.578125 374.082031 141.296875 374.082031 187.992188 Z M 374.082031 187.992188 " fill-opacity="1" fill-rule="nonzero"/><path fill="#ffffff" d="M 195.664062 193.082031 L 286.367188 193.082031 C 309.734375 193.082031 321.769531 205.175781 321.789062 228.664062 C 321.789062 232.855469 320.773438 265.710938 320.714844 269.90625 C 320.617188 276.109375 317.359375 279.890625 311.253906 279.851562 C 305.089844 279.8125 302.007812 275.835938 301.929688 269.710938 C 301.855469 264.035156 303.121094 229.695312 302.90625 224.039062 C 302.652344 217.035156 298.34375 212.140625 291.398438 212.101562 C 259.878906 211.886719 228.375 212.003906 195.644531 212.003906 C 195.644531 221.679688 195.308594 259.855469 195.601562 271.339844 C 195.308594 274.910156 192.488281 279.132812 189.601562 280.945312 C 183.613281 284.691406 176.921875 279.832031 176.707031 272.109375 C 176.472656 262.765625 176.859375 222.636719 176.859375 212.511719 C 174.636719 212.316406 172.53125 211.984375 170.441406 211.964844 C 141.847656 211.925781 113.25 211.90625 84.65625 211.964844 C 73.792969 211.984375 69.421875 216.316406 69.1875 227.140625 C 69.089844 232.308594 69.054688 269.742188 68.800781 274.910156 C 68.527344 280.585938 64.957031 283.492188 59.613281 283.433594 C 54.269531 283.375 50.71875 280.429688 50.621094 274.734375 C 50.503906 267.109375 50.382812 227.160156 51.105469 219.589844 C 52.570312 204.476562 66.125 193.199219 82.609375 193.140625 C 110.949219 193.003906 139.3125 193.101562 167.652344 193.101562 L 176.839844 193.101562 C 176.839844 187.855469 176.589844 151.003906 176.628906 146.1875 C 176.6875 140.101562 179.59375 136.316406 185.816406 135.867188 C 191.492188 135.460938 195.257812 139.730469 195.433594 146.480469 C 195.550781 151.0625 195.664062 187.71875 195.664062 193.082031 Z M 195.664062 193.082031 " fill-opacity="1" fill-rule="nonzero"/><path stroke-linecap="butt" transform="matrix(1.950585, 0, 0, 1.950585, 185.867877, 134.616685)" fill-opacity="1" fill="#9c0271" fill-rule="nonzero" stroke-linejoin="round" d="M 4.038899 0.000257738 C 4.038899 0.262599 4.012865 0.52494 3.960798 0.783276 C 3.90873 1.041612 3.832631 1.291937 3.730498 1.536255 C 3.628365 1.77857 3.504204 2.010872 3.358014 2.229156 C 3.209821 2.449443 3.043605 2.651706 2.85536 2.837948 C 2.667115 3.02419 2.46285 3.190406 2.242563 3.336596 C 2.022277 3.482786 1.789975 3.606948 1.545657 3.707078 C 1.299337 3.809211 1.047008 3.88531 0.788673 3.935375 C 0.528334 3.987443 0.265993 4.013477 -0.000353532 4.013477 C -0.264697 4.013477 -0.527038 3.987443 -0.787377 3.935375 C -1.047716 3.88531 -1.300044 3.809211 -1.544361 3.707078 C -1.790682 3.606948 -2.022984 3.482786 -2.24327 3.336596 C -2.463557 3.190406 -2.667822 3.02419 -2.856067 2.837948 C -3.042309 2.651706 -3.210528 2.449443 -3.356718 2.229156 C -3.504911 2.010872 -3.629072 1.77857 -3.731205 1.536255 C -3.831335 1.291937 -3.909437 1.041612 -3.959502 0.783276 C -4.01157 0.52494 -4.037604 0.262599 -4.037604 0.000257738 C -4.037604 -0.264086 -4.01157 -0.524425 -3.959502 -0.782761 C -3.909437 -1.041096 -3.831335 -1.291422 -3.731205 -1.53574 C -3.629072 -1.780057 -3.504911 -2.010357 -3.356718 -2.228641 C -3.210528 -2.448927 -3.042309 -2.65119 -2.856067 -2.837432 C -2.667822 -3.023675 -2.463557 -3.189891 -2.24327 -3.336081 C -2.022984 -3.482271 -1.790682 -3.606432 -1.544361 -3.706563 C -1.300044 -3.808696 -1.047716 -3.884794 -0.787377 -3.936862 C -0.527038 -3.986927 -0.264697 -4.012961 -0.000353532 -4.012961 C 0.265993 -4.012961 0.528334 -3.986927 0.788673 -3.936862 C 1.047008 -3.884794 1.299337 -3.808696 1.545657 -3.706563 C 1.789975 -3.606432 2.022277 -3.482271 2.242563 -3.336081 C 2.46285 -3.189891 2.667115 -3.023675 2.85536 -2.837432 C 3.043605 -2.65119 3.209821 -2.448927 3.358014 -2.228641 C 3.504204 -2.010357 3.628365 -1.780057 3.730498 -1.53574 C 3.832631 -1.291422 3.90873 -1.041096 3.960798 -0.782761 C 4.012865 -0.524425 4.038899 -0.264086 4.038899 0.000257738 Z M 4.038899 0.000257738 " stroke="#000000" stroke-width="1.138" stroke-opacity="1" stroke-miterlimit="4"/><path fill="#ffffff" d="M 313.925781 336.648438 C 305.539062 336.648438 297.152344 336.78125 288.765625 336.609375 C 277.511719 336.355469 270.136719 329.410156 269.746094 318.253906 C 269.394531 308.148438 269.394531 298.023438 269.765625 287.921875 C 270.15625 277.191406 277.492188 269.820312 288.140625 269.644531 C 305.636719 269.351562 323.171875 269.332031 340.671875 269.683594 C 350.949219 269.878906 358.285156 277.386719 358.597656 287.628906 C 358.929688 297.984375 358.929688 308.34375 358.578125 318.703125 C 358.226562 328.863281 350.675781 336.042969 340.535156 336.609375 C 340.046875 336.628906 339.539062 336.648438 339.050781 336.648438 Z M 313.925781 336.648438 " fill-opacity="1" fill-rule="nonzero"/><path fill="#ffffff" d="M 60.390625 269.527344 C 68.757812 269.527344 77.125 269.351562 85.496094 269.566406 C 97.003906 269.859375 104.160156 277.171875 104.355469 288.742188 C 104.511719 298.335938 104.511719 307.933594 104.355469 317.53125 C 104.160156 329 96.847656 336.453125 85.378906 336.589844 C 68.40625 336.785156 51.417969 336.785156 34.449219 336.570312 C 23.113281 336.433594 15.664062 328.863281 15.410156 317.453125 C 15.195312 307.855469 15.175781 298.257812 15.429688 288.664062 C 15.722656 277.308594 23.25 269.839844 34.585938 269.566406 C 43.167969 269.351562 51.769531 269.527344 60.390625 269.527344 Z M 60.390625 269.527344 " fill-opacity="1" fill-rule="nonzero"/><path fill="#ffffff" d="M 187.140625 336.628906 C 178.539062 336.628906 169.914062 336.800781 161.3125 336.570312 C 150.253906 336.277344 142.898438 328.941406 142.667969 317.941406 C 142.453125 308.109375 142.453125 298.257812 142.667969 288.410156 C 142.898438 277.386719 150.253906 269.761719 161.195312 269.605469 C 178.421875 269.332031 195.644531 269.351562 212.867188 269.585938 C 223.945312 269.742188 231.261719 277.210938 231.515625 288.253906 C 231.75 298.082031 231.730469 307.933594 231.515625 317.785156 C 231.261719 329.136719 223.792969 336.375 212.242188 336.609375 C 203.875 336.761719 195.507812 336.648438 187.140625 336.628906 Z M 187.140625 336.628906 " fill-opacity="1" fill-rule="nonzero"/><path fill="#ffffff" d="M 187.238281 148.570312 C 168.492188 148.570312 149.746094 148.628906 131 148.550781 C 116.136719 148.472656 107.59375 139.988281 107.515625 125.164062 C 107.417969 104.449219 107.398438 83.734375 107.515625 63 C 107.59375 48.449219 116.566406 39.300781 130.980469 39.261719 C 168.472656 39.164062 205.960938 39.144531 243.453125 39.261719 C 257.28125 39.300781 266.234375 47.921875 266.449219 61.847656 C 266.78125 83.304688 266.761719 104.761719 266.46875 126.21875 C 266.273438 140.300781 257.59375 148.472656 243.472656 148.550781 C 224.726562 148.648438 205.980469 148.570312 187.238281 148.570312 Z M 186.300781 86.132812 L 186.300781 86.09375 C 196.132812 86.09375 205.941406 86.074219 215.773438 86.113281 C 219.65625 86.132812 224.101562 85.859375 223.441406 80.886719 C 223.1875 78.972656 218.640625 76.28125 216.007812 76.222656 C 196.367188 75.832031 176.722656 76.007812 157.082031 76.007812 C 153.277344 76.007812 148.984375 75.949219 148.871094 81.042969 C 148.753906 86.210938 152.984375 86.171875 156.847656 86.152344 C 166.660156 86.074219 176.488281 86.132812 186.300781 86.132812 Z M 186.515625 111.996094 L 186.515625 111.9375 C 196.621094 111.9375 206.722656 112.230469 216.789062 111.726562 C 219.1875 111.609375 221.46875 108.777344 223.792969 107.199219 C 221.507812 105.582031 219.246094 102.597656 216.925781 102.539062 C 196.503906 102.167969 176.039062 102.167969 155.617188 102.539062 C 153.296875 102.578125 151.035156 105.523438 148.734375 107.101562 C 150.976562 108.722656 153.160156 111.648438 155.480469 111.765625 C 165.820312 112.289062 176.175781 111.996094 186.515625 111.996094 Z M 186.515625 111.996094 " fill-opacity="1" fill-rule="nonzero"/></svg>